<svg xmlns="http://www.w3.org/2000/svg" viewBox="0 0 1080 1080" version="1.1" fill="currentColor"><path d="" stroke="none" fill-rule="evenodd"/><path d="M 509.500 20.632 C 507.300 20.861, 497.850 21.730, 488.500 22.564 C 421.272 28.557, 355.092 47.298, 295.500 77.219 C 248.832 100.651, 215.269 123.449, 173.793 159.890 C 149.416 181.308, 114.126 221.538, 93.783 251.099 C 77.501 274.760, 56.139 312.823, 46.130 336.010 C 35.886 359.742, 26.383 386.433, 20.676 407.500 C 20.378 408.600, 19.420 411.975, 18.546 415 C 12.902 434.535, 6.584 471.223, 3.821 500.500 C 1.876 521.111, 2.163 572.222, 4.343 593.500 C 10.113 649.813, 25.426 706.638, 48.290 756.586 C 56.470 774.455, 68.643 797.473, 77.679 812.158 C 82.576 820.115, 98.930 844.742, 101.066 847.374 C 101.569 847.993, 106.340 854.125, 111.670 861 C 125.221 878.482, 139.689 894.796, 155.480 910.402 C 184.813 939.389, 211.531 960.751, 245.500 982.377 C 315.569 1026.983, 395.048 1055.169, 477 1064.473 C 581.793 1076.370, 684.741 1058.628, 781.625 1011.974 C 802.777 1001.788, 820.844 991.439, 841.407 977.730 C 862.791 963.474, 866.357 960.823, 888 943.099 C 915.309 920.736, 955.860 878.487, 973.928 853.574 C 1013.185 799.443, 1038.724 748.556, 1056.525 689 C 1070.530 642.141, 1077.420 594.156, 1077.344 544 C 1077.302 516.318, 1076.085 498.648, 1072.493 473.549 C 1068.996 449.113, 1062.434 417.467, 1057.970 403.500 C 1057.442 401.850, 1056.139 397.575, 1055.074 394 C 1051.384 381.611, 1042.144 356.176, 1036.862 343.868 C 1028.537 324.467, 1012.469 292.753, 1005.400 281.771 C 1004.080 279.721, 1003 277.790, 1003 277.481 C 1003 277.172, 1002.144 275.700, 1001.097 274.210 C 1000.050 272.719, 996.150 266.775, 992.430 261 C 961.527 213.030, 913.463 162.210, 866 127.320 C 832.768 102.892, 803.365 85.781, 761.594 66.561 C 735.972 54.772, 695.371 41.098, 668 35.040 C 662.775 33.884, 656.925 32.525, 655 32.022 C 645.535 29.544, 613.443 24.500, 593.500 22.355 C 580.195 20.924, 518.798 19.664, 509.500 20.632 M 761.050 255.078 C 752.607 256.183, 743.145 260.892, 738.295 266.402 C 736.199 268.783, 732.688 274.009, 730.492 278.016 C 728.297 282.023, 716.287 300.421, 703.803 318.901 C 654.971 391.191, 503.572 618.600, 474.052 664 C 457.185 689.939, 455.040 692.682, 452.659 691.349 C 451.796 690.866, 412.708 652.204, 365.795 605.432 C 318.883 558.661, 277.800 518.343, 274.500 515.836 C 255.878 501.691, 239.117 499.402, 220.901 508.516 C 209.043 514.448, 179.716 538.566, 167.910 552.094 C 159.522 561.705, 150.535 574.210, 147.342 580.713 C 144.859 585.770, 144.500 587.636, 144.500 595.500 C 144.500 611.936, 134.497 600.656, 265.405 731.843 C 329.257 795.831, 383.750 849.866, 386.500 851.920 C 389.250 853.974, 394.650 857.400, 398.500 859.533 C 402.350 861.666, 408.819 865.568, 412.877 868.204 C 420.749 873.320, 428.043 876, 434.092 876 C 439.215 876, 448.818 872.873, 453.563 869.660 C 457.831 866.771, 846.023 479.763, 875.367 449.143 C 893.890 429.815, 902.761 418.459, 908.193 407.122 C 914.165 394.655, 913.050 380.101, 904.854 363.557 C 901.103 355.984, 898.530 352.446, 880.817 330.500 C 864.320 310.061, 851.604 296.297, 838.390 284.579 C 827.359 274.798, 821.744 271.353, 805.495 264.401 C 784.596 255.460, 774.427 253.327, 761.050 255.078" stroke="none" fill-rule="evenodd"/></svg>