<svg xmlns="http://www.w3.org/2000/svg" fill="currentColor" viewBox="0 0 200 200" version="1.1"><path d="" stroke="none" fill="#080404" fill-rule="evenodd"/><path d="M 49.086 34.717 C 34.018 40.039, 33 44.169, 33 100 C 33 170.713, 29.287 167, 100 167 C 170.713 167, 167 170.713, 167 100 C 167 29.214, 170.772 32.957, 99.572 33.079 C 60.538 33.146, 52.826 33.396, 49.086 34.717 M 51.077 45.808 C 43.922 49.668, 44 49.070, 44 100.175 C 44 154.769, 41.002 151.950, 68.073 122.810 C 98.490 90.068, 100.328 89.478, 117 107.111 L 125.500 116.101 140.747 99.800 L 155.995 83.500 155.747 67.764 L 155.500 52.028 151.734 48.264 L 147.968 44.500 101.234 44.231 C 57.401 43.978, 54.288 44.076, 51.077 45.808 M 67.500 57.491 C 56.790 61.311, 54.165 74.704, 62.572 82.633 C 68.813 88.519, 78.132 88.031, 83.848 81.520 C 93.933 70.034, 81.903 52.354, 67.500 57.491 M 69.496 69.004 C 65.814 73.073, 71.916 78.684, 75.800 74.800 C 77.461 73.139, 77.300 70.443, 75.429 68.571 C 73.328 66.471, 71.680 66.592, 69.496 69.004 M 142.521 113.639 C 135.383 121.262, 123.492 133.937, 116.096 141.804 L 102.649 156.109 125.271 155.804 L 147.893 155.500 151.436 152.064 C 155.989 147.649, 156.140 146.576, 155.792 121.139 L 155.500 99.777 142.521 113.639 M 75.366 130.758 C 49.437 158.570, 49.849 156.014, 71.309 155.943 L 88.500 155.886 103.339 139.927 L 118.179 123.967 110.339 115.544 C 99.251 103.631, 101.616 102.602, 75.366 130.758" stroke="none" fill="#040404" fill-rule="evenodd"/></svg>