<svg xmlns="http://www.w3.org/2000/svg" fill="currentColor" viewBox="0 0 1080 1080" version="1.1"><path d="" stroke="none" fill-rule="evenodd"/><path d="M 509.500 20.632 C 507.300 20.861, 497.850 21.730, 488.500 22.564 C 421.272 28.557, 355.092 47.298, 295.500 77.219 C 248.832 100.651, 215.269 123.449, 173.793 159.890 C 149.416 181.308, 114.126 221.538, 93.783 251.099 C 77.501 274.760, 56.139 312.823, 46.130 336.010 C 35.886 359.742, 26.383 386.433, 20.676 407.500 C 20.378 408.600, 19.420 411.975, 18.546 415 C 12.902 434.535, 6.584 471.223, 3.821 500.500 C 1.876 521.111, 2.163 572.222, 4.343 593.500 C 10.113 649.813, 25.426 706.638, 48.290 756.586 C 56.470 774.455, 68.643 797.473, 77.679 812.158 C 82.576 820.115, 98.930 844.742, 101.066 847.374 C 101.569 847.993, 106.340 854.125, 111.670 861 C 125.221 878.482, 139.689 894.796, 155.480 910.402 C 184.813 939.389, 211.531 960.751, 245.500 982.377 C 315.569 1026.983, 395.048 1055.169, 477 1064.473 C 581.793 1076.370, 684.741 1058.628, 781.625 1011.974 C 802.777 1001.788, 820.844 991.439, 841.407 977.730 C 862.791 963.474, 866.357 960.823, 888 943.099 C 915.309 920.736, 955.860 878.487, 973.928 853.574 C 1013.185 799.443, 1038.724 748.556, 1056.525 689 C 1070.530 642.141, 1077.420 594.156, 1077.344 544 C 1077.302 516.318, 1076.085 498.648, 1072.493 473.549 C 1068.996 449.113, 1062.434 417.467, 1057.970 403.500 C 1057.442 401.850, 1056.139 397.575, 1055.074 394 C 1051.384 381.611, 1042.144 356.176, 1036.862 343.868 C 1028.537 324.467, 1012.469 292.753, 1005.400 281.771 C 1004.080 279.721, 1003 277.790, 1003 277.481 C 1003 277.172, 1002.144 275.700, 1001.097 274.210 C 1000.050 272.719, 996.150 266.775, 992.430 261 C 961.527 213.030, 913.463 162.210, 866 127.320 C 832.768 102.892, 803.365 85.781, 761.594 66.561 C 735.972 54.772, 695.371 41.098, 668 35.040 C 662.775 33.884, 656.925 32.525, 655 32.022 C 645.535 29.544, 613.443 24.500, 593.500 22.355 C 580.195 20.924, 518.798 19.664, 509.500 20.632 M 284 169.094 C 280.975 170.273, 276.025 171.867, 273 172.638 C 269.975 173.408, 264.800 174.725, 261.500 175.563 C 241.662 180.603, 211.025 203.983, 189.990 230.134 C 170.604 254.235, 151.404 288.560, 146.408 308.050 C 142.829 322.008, 146.932 335.427, 157.551 344.499 C 161.841 348.165, 163.330 350.322, 165.514 356.036 C 168.611 364.141, 173.864 371.556, 180.707 377.484 C 191.082 386.470, 307.968 471.117, 328.950 484.839 C 345.428 495.615, 369.542 509.536, 395 522.971 C 413.368 532.664, 415.639 534.156, 414.597 535.843 C 414.246 536.412, 406.430 540.811, 397.229 545.619 C 356.534 566.884, 331.626 582.194, 295.500 608.146 C 255.372 636.973, 190.749 684.193, 183.833 689.742 C 173.536 698.004, 169.323 703.716, 164.993 715.289 C 163.434 719.457, 161.562 721.951, 157.046 725.879 C 141.212 739.651, 141.179 755.822, 156.921 787.500 C 173.967 821.804, 195.691 850.131, 220.500 870.408 C 236.985 883.881, 251.720 892.213, 264 895.004 C 271.837 896.785, 277.617 898.478, 284.500 901.008 C 292.468 903.937, 302.271 903.447, 309.515 899.759 C 321.680 893.563, 329.701 886.060, 421 795.471 C 507.921 709.225, 532.980 685, 535.274 685 C 536.696 685, 544.509 692.028, 558.948 706.294 C 570.802 718.006, 595.800 742.643, 614.500 761.043 C 633.200 779.443, 664.700 810.523, 684.500 830.109 C 737.907 882.941, 746.215 890.722, 755.754 896.842 C 766.543 903.765, 776.478 904.743, 788.801 900.097 C 793.035 898.500, 800.408 896.286, 805.183 895.177 C 841.929 886.646, 887.056 841.590, 914.033 786.500 C 922.892 768.408, 924.202 764.370, 924.743 753.500 C 925.370 740.876, 923.238 735.458, 914.048 726.322 C 908.446 720.752, 906.591 718.051, 903.940 711.606 C 899.094 699.824, 892.878 693.900, 860.857 670.554 C 845.811 659.583, 825.400 644.697, 815.500 637.474 C 760.596 597.412, 746.228 587.418, 724.880 574.441 C 713.661 567.620, 681.568 549.871, 667.250 542.567 C 659.086 538.403, 656 536.325, 656 534.993 C 656 533.640, 660.131 530.992, 671.730 524.911 C 711.846 503.880, 742.176 485.441, 771 464.558 C 879.532 385.925, 889.397 378.576, 895.457 371.841 C 899.901 366.901, 903.079 361.324, 906.036 353.277 C 906.688 351.504, 910.468 346.779, 914.438 342.777 C 923.029 334.115, 925 329.477, 925 317.927 C 925 308.144, 922.872 301.251, 914.681 284.500 C 898.668 251.755, 875.573 220.707, 853.286 201.963 C 833.103 184.989, 816.189 175.933, 800.001 173.435 C 797.527 173.053, 792.163 171.403, 788.083 169.769 C 778.675 166.002, 769.609 166.119, 761 170.119 C 749.002 175.693, 753.557 171.336, 566.331 356.338 C 544.777 377.636, 536.643 385.074, 535.175 384.830 C 532.870 384.447, 495.015 347.704, 403.034 256.570 C 334.688 188.853, 320.170 175.376, 310.378 170.557 C 302.334 166.598, 291.894 166.019, 284 169.094" stroke="none" fill-rule="evenodd"/></svg>