<svg xmlns="http://www.w3.org/2000/svg" fill="currentColor" viewBox="0 0 1080 1080" version="1.1"><path d="" stroke="none" fill-rule="evenodd"/><path d="M 469.500 29.111 C 451.696 31.693, 442.094 39.283, 438.970 53.244 C 437.963 57.745, 437.954 60.086, 438.926 64.700 C 440.268 71.065, 440.584 87.382, 442.030 225 C 442.541 273.675, 443.407 317.100, 443.954 321.500 C 444.501 325.900, 445.652 337.150, 446.513 346.500 C 448.839 371.756, 451.337 378.368, 460.999 384.847 C 471.441 391.849, 476.496 393.077, 500.232 394.372 C 516.591 395.264, 527.347 395.282, 543.732 394.443 C 564.824 393.363, 565.739 393.228, 573.200 390.092 C 591.824 382.263, 595.660 375.617, 598.020 347.086 C 598.638 339.614, 599.560 330.161, 600.069 326.080 C 601.562 314.106, 603.034 240.564, 603.524 153.500 C 603.795 105.282, 604.379 70.881, 604.966 68.500 C 608.429 54.457, 603.375 40.820, 592.303 34.332 C 583.133 28.958, 580.704 28.743, 526 28.482 C 498.225 28.349, 472.800 28.632, 469.500 29.111 M 865.298 124.750 C 845.664 146.206, 821 176.854, 821 179.795 C 821 182.038, 822.146 183.299, 838.522 199.080 C 868.189 227.671, 889.186 253.913, 910.655 289.234 C 916.649 299.094, 931.730 328.186, 936.454 339 C 956.125 384.029, 968.855 435.456, 971.951 482.405 C 976.990 558.804, 965.147 626.206, 934.511 695.500 C 920.920 726.239, 894.622 768.947, 874.525 792.915 C 849.876 822.313, 817.428 852.814, 792.105 870.391 C 750.126 899.528, 716.843 916.369, 673.500 930.402 C 641.256 940.842, 629.029 943.734, 599.500 947.907 C 556.186 954.027, 507.486 953.192, 463 945.567 C 449.383 943.233, 444.708 942.235, 432.763 939.110 C 373.450 923.593, 319.237 897.147, 274 861.661 C 184.086 791.131, 126.766 693.048, 109.102 579.500 C 104.520 550.048, 103.528 498.107, 106.991 469 C 111.209 433.545, 114.065 419.385, 123.126 389 C 130.491 364.301, 133.341 356.740, 144.799 331.500 C 164.433 288.247, 194.509 244.355, 229.171 208.372 C 234.897 202.428, 237 199.538, 237 197.615 C 237 195.780, 233.616 190.686, 225.791 180.743 C 209.151 159.600, 185.964 131.923, 184.382 131.316 C 181.078 130.048, 177.207 132.824, 164.918 145.272 C 87.718 223.468, 35.851 325.167, 18.430 432.500 C 9.595 486.934, 8.957 541.750, 16.552 594 C 25.655 656.627, 46.134 718.445, 75.852 773 C 85.506 790.722, 88.353 795.377, 101.541 815 C 136.234 866.622, 174.855 907.317, 225 945.090 C 237.570 954.559, 262.342 970.862, 273.500 977.010 C 276.800 978.828, 281.123 981.334, 283.106 982.579 C 290.107 986.975, 317.419 1000.206, 334.649 1007.550 C 372.228 1023.565, 409.796 1034.380, 452.500 1041.477 C 507.606 1050.635, 554.789 1051.189, 611.500 1043.346 C 714.899 1029.046, 814.625 982.040, 891.946 911.159 C 906.832 897.513, 911.172 893.241, 922.036 881.545 C 956.293 844.665, 982.822 806.655, 1006.410 760.655 C 1036.090 702.776, 1053.863 643.403, 1061.385 577 C 1062.874 563.858, 1063.337 557.340, 1064.545 532.500 C 1065.545 511.929, 1062.717 465.528, 1058.938 440.500 C 1055.148 415.395, 1046.404 378.254, 1039.045 356 C 1011.020 271.252, 967.110 200.383, 904.983 139.628 C 887.252 122.289, 878.501 115, 875.414 115 C 874.757 115, 870.205 119.388, 865.298 124.750" stroke="none" fill-rule="evenodd"/></svg>