<?xml version="1.0" standalone="no"?>
<!DOCTYPE svg PUBLIC "-//W3C//DTD SVG 20010904//EN"
        "http://www.w3.org/2000/svg">
<svg version="1.0" xmlns="http://www.w3.org/2000/svg"
     fill="currentColor" viewBox="0 0 1080.000000 1080.000000"
 preserveAspectRatio="xMidYMid meet">

<g transform="translate(0.000000,1080.000000) scale(0.100000,-0.100000)"
stroke="none">
<path d="M5611 9540 c-50 -21 -113 -83 -137 -134 -13 -28 -171 -541 -350
-1141 -573 -1918 -796 -2659 -801 -2668 -3 -5 -28 13 -57 41 -195 188 -449
292 -716 292 -283 0 -518 -98 -720 -300 -148 -149 -230 -295 -276 -495 -29
-124 -25 -339 8 -466 48 -177 133 -325 262 -455 94 -93 176 -151 290 -204 283
-132 600 -128 881 10 284 140 482 397 547 710 17 79 19 121 15 243 -4 135 -3
156 18 225 13 43 55 183 94 312 115 382 767 2563 814 2719 23 79 47 145 54
148 11 4 167 -40 853 -239 151 -44 482 -140 735 -213 253 -73 611 -177 795
-230 184 -54 360 -104 390 -112 30 -8 58 -18 62 -21 4 -4 -28 -129 -71 -277
-43 -149 -113 -387 -154 -530 -42 -143 -109 -377 -151 -520 -296 -1030 -415
-1435 -421 -1443 -2 -2 -47 41 -102 95 -198 199 -442 303 -714 303 -297 0
-528 -96 -735 -305 -133 -135 -213 -276 -266 -473 -31 -116 -31 -343 1 -467
26 -103 90 -245 149 -332 238 -351 693 -515 1112 -403 110 30 263 110 360 187
214 172 334 389 380 688 12 83 47 224 95 390 42 143 131 454 200 690 68 237
142 493 165 570 22 77 97 336 166 575 69 239 143 494 164 565 21 72 87 297
145 500 101 350 137 475 285 984 69 237 72 272 27 339 -35 54 -120 95 -397
192 -129 46 -341 126 -470 178 -452 183 -608 237 -855 300 -327 83 -591 122
-1095 161 -204 16 -552 22 -579 11z m504 -360 c804 -56 1143 -134 1860 -428
182 -74 372 -146 550 -207 61 -20 114 -41 118 -45 5 -4 -17 -95 -48 -201 -32
-107 -70 -237 -85 -289 -17 -60 -33 -96 -43 -98 -12 -3 -229 59 -1267 359 -96
28 -296 86 -445 129 -148 44 -427 124 -620 180 -192 55 -383 110 -422 122 -41
12 -73 26 -73 34 0 10 92 331 121 422 l11 32 101 0 c56 0 165 -5 242 -10z"/>
<path d="M558 7520 c-72 -39 -117 -131 -100 -207 9 -37 43 -133 353 -988 202
-556 382 -1051 604 -1665 103 -283 240 -661 305 -840 65 -179 116 -328 114
-331 -2 -4 -32 1 -66 9 -44 11 -109 16 -213 15 -129 0 -164 -4 -248 -26 -376
-100 -652 -385 -739 -762 -32 -136 -29 -327 6 -460 92 -351 362 -625 713 -722
88 -25 114 -28 263 -28 150 0 174 3 265 28 282 78 506 260 642 522 84 162 124
373 104 553 -18 170 -75 322 -177 477 -40 61 -73 128 -101 205 -106 295 -427
1179 -538 1485 -236 647 -368 1011 -455 1255 -49 135 -127 351 -174 480 -47
129 -86 239 -86 245 0 7 37 9 111 7 61 -3 207 3 325 13 299 24 434 8 630 -76
154 -66 280 -145 324 -204 63 -84 144 -224 195 -337 57 -128 98 -173 169 -183
110 -17 196 59 196 172 0 80 -78 251 -206 453 -89 141 -147 203 -258 275 -171
111 -394 205 -564 236 -167 30 -267 33 -536 14 -279 -20 -321 -17 -401 20 -79
38 -113 78 -178 209 -69 140 -100 168 -185 173 -43 2 -66 -2 -94 -17z"/>
<path d="M10045 6791 c-50 -22 -91 -69 -105 -119 -6 -20 -28 -156 -50 -302
-80 -537 -151 -999 -175 -1150 -14 -85 -52 -333 -84 -550 -120 -795 -211
-1396 -221 -1450 -5 -30 -30 -194 -55 -365 -52 -352 -52 -355 -64 -355 -5 0
-33 21 -63 46 -128 109 -292 188 -469 225 -136 27 -339 23 -469 -10 -104 -27
-284 -113 -368 -176 -283 -213 -434 -532 -419 -885 24 -544 459 -975 1007
-997 185 -8 337 23 502 101 232 110 436 329 524 564 62 165 74 272 65 562 -3
76 2 141 18 235 12 72 54 337 92 590 70 462 157 1032 294 1935 165 1081 206
1347 245 1600 23 146 42 292 42 326 1 89 -35 145 -114 179 -49 20 -84 19 -133
-4z"/>
</g>
</svg>
