<?xml version="1.0" standalone="no"?>
<!DOCTYPE svg PUBLIC "-//W3C//DTD SVG 20010904//EN"
        "http://www.w3.org/2000/svg">
<svg version="1.0" xmlns="http://www.w3.org/2000/svg"
     fill="currentColor" viewBox="0 0 1080.000000 1080.000000"
 preserveAspectRatio="xMidYMid meet">

<g transform="translate(0.000000,1080.000000) scale(0.100000,-0.100000)"
stroke="none">
<path d="M7503 10604 c-86 -31 -155 -128 -174 -243 -5 -33 -9 -979 -9 -2279 0
-1480 -3 -2221 -10 -2217 -5 3 -38 43 -72 88 -111 146 -324 409 -418 517 -454
515 -1212 1252 -1775 1726 -337 284 -620 493 -928 684 -107 66 -356 231 -607
401 -221 150 -330 216 -436 265 -44 19 -110 50 -148 67 -92 43 -170 44 -239 4
-81 -48 -108 -107 -151 -332 -59 -311 -83 -554 -96 -970 -6 -181 -17 -485 -25
-675 -32 -722 -35 -912 -35 -2250 0 -1340 3 -1556 35 -2250 8 -184 19 -483 25
-665 13 -428 36 -668 96 -980 32 -165 48 -220 79 -267 47 -70 158 -113 235
-90 56 16 257 108 339 154 42 24 265 169 497 323 232 154 487 322 566 373 363
235 693 495 1178 932 463 417 1018 972 1390 1390 99 111 274 327 403 497 42
56 81 104 87 108 7 4 10 -715 10 -2217 0 -1300 4 -2246 9 -2279 17 -105 75
-194 154 -236 25 -14 55 -17 132 -17 139 1 310 12 374 24 30 5 89 10 131 10
42 0 102 5 133 10 46 9 62 8 86 -5 46 -23 114 -29 168 -14 66 18 134 87 154
154 12 43 14 714 14 5055 l0 5005 -24 53 c-55 123 -197 176 -312 116 -19 -10
-41 -13 -57 -9 -15 4 -87 11 -162 16 -572 42 -567 42 -617 23z"/>
</g>
</svg>
