<?xml version="1.0" standalone="no"?>
<!DOCTYPE svg PUBLIC "-//W3C//DTD SVG 20010904//EN"
        "http://www.w3.org/2000/svg">
<svg version="1.0" xmlns="http://www.w3.org/2000/svg"
     fill="currentColor" viewBox="0 0 1080.000000 1080.000000"
 preserveAspectRatio="xMidYMid meet">

<g transform="translate(0.000000,1080.000000) scale(0.100000,-0.100000)"
stroke="none">
<path d="M3365 10229 c-705 -137 -739 -142 -1150 -168 -603 -38 -926 -66 -993
-86 -85 -26 -151 -89 -180 -174 -9 -26 -12 -1064 -12 -4281 l0 -4247 26 -84
c15 -46 33 -97 41 -114 21 -42 72 -94 114 -115 99 -51 336 -84 599 -83 266 1
393 16 810 98 96 19 297 55 445 80 391 66 451 81 568 142 85 45 160 114 186
173 25 54 27 140 6 200 -13 38 -15 527 -15 4164 -1 4118 -1 4121 -21 4176 -11
30 -29 84 -39 119 -23 82 -63 138 -125 176 -42 26 -59 30 -129 32 -45 1 -103
-3 -131 -8z"/>
<path d="M7107 10226 c-86 -32 -135 -91 -166 -198 -11 -35 -28 -89 -40 -120
l-21 -58 0 -4120 c0 -3774 -1 -4125 -16 -4171 -47 -143 27 -276 207 -369 91
-47 178 -71 379 -105 256 -42 441 -75 620 -110 435 -84 542 -97 810 -98 277
-1 511 33 606 89 73 42 96 78 148 227 l26 75 0 4249 c0 3242 -2 4257 -11 4283
-31 89 -102 155 -194 179 -48 12 -436 48 -665 61 -661 38 -740 47 -1190 136
-309 61 -432 73 -493 50z"/>
</g>
</svg>
