<?xml version="1.0" standalone="no"?>
<!DOCTYPE svg PUBLIC "-//W3C//DTD SVG 20010904//EN"
        "http://www.w3.org/2000/svg">
<svg version="1.0" xmlns="http://www.w3.org/2000/svg"
     fill="currentColor" viewBox="0 0 1080.000000 1080.000000"
 preserveAspectRatio="xMidYMid meet">

<g transform="translate(0.000000,1080.000000) scale(0.100000,-0.100000)"
stroke="none">
<path d="M1485 10511 c-244 -25 -353 -79 -415 -206 l-25 -50 0 -4840 0 -4840
27 -51 c79 -151 241 -207 598 -207 275 -1 475 34 796 137 226 73 593 227 901
377 858 419 1282 637 1623 834 74 43 185 106 245 140 61 34 174 101 252 148
138 83 495 285 683 385 99 53 249 132 508 267 478 249 1384 752 1667 925 33
20 132 79 220 130 324 189 789 487 990 635 275 202 471 415 590 640 26 50 64
113 86 141 74 96 83 128 86 314 3 200 -8 255 -69 341 -24 34 -65 100 -91 147
-182 325 -373 513 -837 822 -174 116 -479 309 -645 408 -60 36 -180 107 -266
158 -85 51 -202 119 -260 152 -57 32 -167 95 -244 139 -137 79 -345 194 -655
365 -85 47 -285 154 -445 238 -873 460 -990 524 -1540 847 -457 269 -744 422
-1415 754 -344 171 -634 314 -645 319 -477 220 -894 362 -1216 415 -112 18
-392 27 -504 16z"/>
</g>
</svg>
