<?xml version="1.0" standalone="no"?>
<!DOCTYPE svg PUBLIC "-//W3C//DTD SVG 20010904//EN"
        "http://www.w3.org/2000/svg">
<svg version="1.0" xmlns="http://www.w3.org/2000/svg"
     fill="currentColor" viewBox="0 0 1080.000000 1080.000000"
 preserveAspectRatio="xMidYMid meet">

<g transform="translate(0.000000,1080.000000) scale(0.100000,-0.100000)"
stroke="none">
<path d="M3150 10589 c-25 -5 -61 -7 -80 -4 -19 3 -84 -1 -144 -10 -60 -8
-144 -15 -185 -15 -42 0 -94 -5 -115 -10 -30 -6 -47 -5 -69 6 -16 9 -53 18
-83 21 -98 10 -184 -41 -228 -137 l-21 -45 0 -4960 c1 -4074 3 -4968 14 -5005
17 -58 91 -134 146 -149 57 -16 87 -14 155 10 33 11 64 17 70 14 6 -4 75 -11
153 -16 78 -5 203 -15 277 -21 221 -19 318 -16 365 9 53 28 87 66 122 133 l28
55 3 2248 c1 1260 6 2247 11 2247 5 0 41 -44 82 -98 295 -394 495 -619 1058
-1185 780 -786 1418 -1323 2032 -1710 91 -58 316 -206 500 -329 350 -235 437
-287 609 -364 139 -61 183 -71 246 -54 52 15 116 66 140 112 34 66 92 369 124
645 19 169 32 419 50 988 6 171 17 450 25 620 22 448 22 3228 0 3680 -8 171
-19 452 -25 625 -27 852 -44 1049 -120 1427 -41 204 -72 262 -165 304 -64 30
-113 24 -229 -25 -218 -94 -372 -184 -688 -405 -103 -72 -292 -196 -420 -277
-373 -236 -608 -407 -928 -675 -380 -318 -638 -555 -1039 -953 -594 -590 -839
-860 -1153 -1274 -48 -62 -90 -113 -95 -113 -4 1 -10 1010 -13 2243 l-5 2243
-28 57 c-33 67 -99 130 -155 146 -45 14 -156 14 -222 1z"/>
</g>
</svg>
