<?xml version="1.0" standalone="no"?>
<!DOCTYPE svg PUBLIC "-//W3C//DTD SVG 20010904//EN"
        "http://www.w3.org/2000/svg">
<svg version="1.0" xmlns="http://www.w3.org/2000/svg"
     fill="currentColor" viewBox="0 0 1080.000000 1080.000000"
 preserveAspectRatio="xMidYMid meet">

<g transform="translate(0.000000,1080.000000) scale(0.100000,-0.100000)" stroke="none">
<path d="M4755 10609 c-33 -4 -132 -12 -220 -17 -220 -12 -280 -39 -331 -147
-19 -39 -24 -67 -24 -128 0 -72 25 -386 50 -632 6 -55 15 -154 21 -220 39
-455 62 -541 164 -601 40 -23 63 -28 171 -35 125 -9 164 -19 164 -42 0 -31
-70 -128 -153 -212 l-92 -94 -150 -47 c-268 -84 -495 -179 -824 -346 -361
-183 -469 -245 -706 -406 -331 -225 -533 -392 -720 -598 -247 -271 -385 -473
-553 -811 -103 -206 -144 -305 -219 -533 -141 -429 -207 -777 -239 -1250 -33
-492 9 -897 132 -1280 103 -322 158 -437 443 -935 85 -149 363 -527 511 -695
288 -328 519 -516 938 -764 229 -136 550 -301 697 -359 195 -76 460 -158 588
-181 274 -50 408 -61 772 -61 564 0 832 45 1293 216 325 121 874 427 1181 656
242 182 531 477 722 738 264 360 277 380 441 675 121 217 137 248 198 392 134
313 207 595 246 948 20 188 15 605 -11 850 -72 686 -282 1345 -592 1859 -145
241 -282 412 -517 646 -180 180 -315 288 -606 486 -217 148 -339 218 -695 399
-334 170 -564 268 -825 350 l-165 52 -82 84 c-81 82 -145 168 -158 211 -9 33
16 41 156 51 94 7 135 15 166 30 50 26 96 80 111 130 17 56 40 213 52 352 5
69 17 190 25 270 19 184 44 460 55 615 13 179 -6 242 -97 311 -51 39 -115 54
-236 54 -51 1 -144 7 -207 15 -107 13 -127 12 -284 -7 -164 -21 -171 -21 -310
-4 -202 25 -215 25 -281 15z m170 -2582 c157 -66 340 -62 550 14 53 18 75 20
180 16 108 -4 133 -9 255 -50 233 -77 455 -173 748 -323 335 -172 407 -213
612 -352 336 -228 453 -325 653 -540 206 -221 325 -392 470 -672 194 -377 350
-899 407 -1360 18 -151 40 -482 40 -605 0 -138 -30 -414 -60 -560 -58 -283
-183 -604 -336 -862 -25 -43 -61 -108 -80 -144 -59 -119 -310 -475 -452 -644
-288 -341 -488 -511 -885 -746 -383 -228 -682 -364 -1032 -468 -176 -52 -477
-83 -820 -83 -450 0 -660 30 -988 139 -270 90 -506 201 -822 388 -336 198
-498 320 -706 532 -166 168 -255 274 -413 493 -149 207 -201 287 -291 450 -32
58 -83 149 -113 204 -96 173 -211 477 -257 679 -48 215 -79 522 -71 702 29
578 74 862 207 1290 96 312 208 561 368 825 109 178 219 317 396 499 176 180
297 278 570 463 258 174 321 211 670 388 333 169 575 268 855 349 19 6 91 9
160 7 106 -3 134 -8 185 -29z"/>
<path d="M4970 7735 c-249 -37 -571 -118 -745 -186 -256 -102 -528 -246 -780
-414 -338 -226 -582 -453 -824 -763 -225 -290 -334 -496 -522 -980 -129 -333
-178 -661 -150 -1008 18 -222 48 -437 85 -618 40 -191 148 -542 212 -693 85
-199 251 -515 351 -668 80 -122 241 -330 314 -406 178 -184 692 -530 918 -619
229 -89 593 -185 811 -212 144 -18 940 -18 1100 0 131 15 326 53 450 89 158
45 494 224 645 343 33 26 112 82 175 125 213 144 482 401 537 513 36 73 37
147 4 212 -48 91 -510 526 -833 783 -54 42 -177 148 -275 234 -226 200 -476
407 -668 554 -82 63 -193 157 -247 209 -115 113 -117 120 -99 295 7 66 15 341
18 611 6 473 2 607 -27 1069 -5 77 -12 376 -16 665 -5 467 -4 530 10 569 48
130 -17 259 -149 296 -86 24 -136 24 -295 0z"/>
</g>
</svg>
