<?xml version="1.0" standalone="no"?>
<!DOCTYPE svg PUBLIC "-//W3C//DTD SVG 20010904//EN"
        "http://www.w3.org/2000/svg">
<svg version="1.0" xmlns="http://www.w3.org/2000/svg"
     fill="currentColor" viewBox="0 0 1080.000000 1080.000000"
 preserveAspectRatio="xMidYMid meet">

<g transform="translate(0.000000,1080.000000) scale(0.100000,-0.100000)"
stroke="none">
<path d="M4950 10659 c-117 -14 -317 -55 -404 -85 -105 -35 -298 -122 -399
-180 -210 -119 -457 -339 -573 -509 -64 -93 -127 -210 -164 -304 -38 -97 -89
-314 -104 -440 -9 -77 -19 -127 -28 -133 -7 -5 -35 -20 -61 -34 -66 -34 -166
-136 -216 -222 -54 -90 -125 -258 -153 -359 -30 -110 -30 -315 0 -425 32 -119
78 -203 151 -281 162 -172 287 -228 519 -232 79 -1 137 -6 144 -13 6 -6 31
-49 57 -96 133 -248 330 -454 581 -609 260 -159 656 -247 984 -217 394 35 691
160 974 409 118 103 258 287 337 439 20 39 42 75 48 79 6 3 69 7 141 9 231 3
355 59 518 232 74 78 114 153 150 277 30 106 32 313 4 420 -25 92 -93 256
-147 352 -54 96 -163 207 -241 247 -62 31 -59 26 -73 161 -15 149 -77 384
-136 510 -106 230 -250 406 -475 580 -154 119 -248 176 -422 255 -164 74 -259
105 -407 135 -222 44 -420 55 -605 34z m400 -573 c189 -16 234 -28 417 -116
137 -66 178 -92 309 -197 135 -107 246 -251 294 -381 45 -119 89 -322 70 -322
-6 0 -59 48 -118 108 -257 256 -559 407 -927 463 -115 18 -388 15 -518 -5
-355 -55 -668 -219 -924 -484 -44 -46 -85 -82 -91 -78 -19 12 29 222 79 343
88 209 297 408 574 543 200 97 244 110 420 125 199 16 223 16 415 1z"/>
<path d="M4980 6286 c-3 -3 -63 -10 -133 -15 -179 -15 -296 -41 -487 -109
-353 -126 -589 -276 -965 -613 -332 -297 -620 -659 -849 -1070 -180 -323 -253
-526 -350 -975 -93 -432 -115 -670 -136 -1529 -27 -1058 -26 -1149 16 -1445
25 -175 106 -311 217 -364 29 -14 120 -40 202 -58 l150 -33 325 0 c179 0 501
9 715 20 574 28 2356 28 2930 0 216 -11 535 -19 715 -19 l325 0 150 32 c175
38 239 66 296 130 90 102 114 183 144 472 15 139 17 226 11 560 -16 1012 -37
1513 -77 1815 -37 281 -132 708 -205 917 -149 427 -487 960 -847 1335 -204
212 -540 493 -722 604 -146 89 -297 161 -458 219 -182 65 -304 94 -473 111
-123 12 -486 24 -494 15z"/>
</g>
</svg>
