<?xml version="1.0" standalone="no"?>
<!DOCTYPE svg PUBLIC "-//W3C//DTD SVG 20010904//EN"
        "http://www.w3.org/2000/svg">
<svg version="1.0" xmlns="http://www.w3.org/2000/svg"
     fill="currentColor" viewBox="0 0 1080.000000 1080.000000"
 preserveAspectRatio="xMidYMid meet">

<g transform="translate(0.000000,1080.000000) scale(0.100000,-0.100000)"
stroke="none">
<path d="M6780 9700 c-344 -25 -678 -100 -995 -225 -823 -322 -1503 -994
-1831 -1807 -25 -63 -44 -98 -54 -98 -8 0 -28 9 -45 20 -73 50 -234 135 -331
176 -258 108 -571 155 -897 134 -621 -40 -1041 -284 -1380 -801 -180 -273
-323 -584 -422 -912 -88 -291 -124 -528 -132 -861 l-6 -238 -52 -62 c-287
-337 -515 -975 -515 -1437 0 -361 106 -627 378 -951 48 -57 100 -124 115 -150
29 -50 297 -341 413 -447 252 -232 622 -419 974 -492 241 -50 372 -57 620 -35
590 55 1473 319 2026 608 62 32 119 58 128 58 9 0 33 -11 54 -23 251 -158 505
-258 778 -309 105 -19 154 -22 409 -22 308 -1 412 8 625 50 416 83 655 194
1069 499 73 53 147 105 165 116 l33 19 204 -103 c309 -156 493 -211 750 -223
400 -20 870 132 1229 396 119 88 294 267 365 375 110 167 199 377 240 565 9
41 18 143 22 225 l5 150 -51 210 c-166 679 -278 968 -491 1270 l-49 70 30 105
c89 312 123 596 116 955 -8 366 -50 615 -162 950 -169 509 -414 905 -795 1285
-289 289 -566 485 -916 651 -230 108 -542 212 -769 254 -264 50 -614 72 -855
55z m642 -414 c496 -73 962 -273 1368 -586 122 -94 396 -368 490 -490 434
-563 652 -1256 609 -1942 -11 -186 -50 -450 -69 -471 -4 -4 -38 19 -77 51
-296 248 -587 375 -926 404 -158 13 -303 3 -472 -34 -157 -33 -142 -41 -186
89 -99 297 -252 525 -449 670 -240 178 -603 300 -947 319 -231 13 -582 -41
-857 -130 -172 -57 -445 -191 -576 -284 -92 -65 -255 -217 -319 -297 l-31 -40
-28 35 c-200 254 -377 442 -579 616 -156 135 -148 103 -71 294 210 526 557
968 1019 1296 436 310 908 476 1499 528 121 11 441 -4 602 -28z"/>
</g>
</svg>
