<svg xmlns="http://www.w3.org/2000/svg" fill="currentColor" viewBox="0 0 1080 1080" version="1.1"><path d="" stroke="none" fill-rule="evenodd"/><path d="M 384.780 168.056 C 366.976 169.577, 347.535 175.259, 333 183.188 C 309.019 196.270, 291.957 213.047, 269.627 245.500 C 264.329 253.200, 258.363 261.187, 256.368 263.250 C 252.166 267.594, 247.712 269.163, 226 273.943 C 183.951 283.202, 157.263 298.154, 137.414 323.574 C 125.843 338.392, 120.243 350.206, 112.403 376.335 C 109.384 386.399, 106.729 393.182, 104.511 396.500 C 102.673 399.250, 94.794 408.025, 87.001 416 C 65.561 437.940, 54.483 452.262, 43.193 472.635 C 25.635 504.317, 12.225 543.515, 7.964 575.611 C 6.040 590.101, 7.158 614.273, 10.304 626.206 C 20.255 663.951, 47.901 690.029, 90 701.381 C 105.120 705.459, 117.191 707.094, 136.697 707.708 L 154.893 708.281 159.585 716.390 C 171.131 736.349, 185.565 749.801, 206.861 760.450 C 230.161 772.102, 259.267 777.691, 337 785.441 C 395.409 791.265, 447.670 795.015, 498.500 797.030 C 524.231 798.050, 538.906 799.031, 579.500 802.446 C 589.400 803.278, 611.900 804.877, 629.500 805.998 C 658.487 807.844, 672.523 809.059, 715.696 813.455 C 745.867 816.527, 768.905 817.311, 809.500 816.645 C 882.168 815.455, 908.015 813.054, 945.500 804.013 C 977.445 796.309, 1018.118 781.937, 1029.826 774.216 C 1045.811 763.676, 1067.285 722.743, 1073.493 690.981 C 1075.786 679.247, 1076.586 655.289, 1075.068 643.769 C 1070.871 611.910, 1058.733 583.034, 1037.962 555.500 C 1031.195 546.531, 1024.177 538.589, 1001.601 514.360 C 987.868 499.621, 986.366 496.883, 981.558 477.820 C 977.252 460.744, 974.847 453.695, 969.936 443.749 C 958.301 420.188, 939.345 403.258, 915.229 394.890 C 903.052 390.665, 895.363 389.688, 873.500 389.592 L 852.500 389.500 848.330 373.500 C 839.231 338.588, 830.856 317.885, 815.821 293.136 C 803.636 273.081, 790.439 257.359, 775.033 244.545 C 751.161 224.690, 725.617 213.343, 695 208.992 C 683.537 207.363, 659.028 207.567, 645.222 209.406 C 615.600 213.353, 581.469 226.082, 555.030 243.041 L 546.712 248.378 539.167 239.939 C 525.122 224.228, 511.974 212.684, 493.500 199.843 C 458.891 175.786, 421.670 164.904, 384.780 168.056 M 390.500 254.053 C 372.354 256.404, 359.042 266.863, 341.928 292.216 C 329.589 310.496, 323.102 318.718, 314.811 326.583 C 297.811 342.712, 281.766 350.086, 248.506 357.057 C 224.728 362.040, 213.768 366.806, 206.161 375.469 C 201.443 380.843, 199.622 385.048, 193.983 403.584 C 183.825 436.980, 179.104 444.591, 150 474.500 C 128.420 496.676, 123.322 503.703, 112.625 526.020 C 101.417 549.404, 94.115 573.571, 93.247 590.155 C 92.969 595.465, 93.047 601.437, 93.420 603.426 C 95.349 613.708, 109.384 620.086, 133.589 621.681 C 144.347 622.391, 143.600 623.244, 145.021 608.619 C 148.099 576.927, 149.358 571.294, 156.575 556.885 C 163.951 542.161, 178.415 526.623, 192.461 518.334 C 199.578 514.133, 212.205 508.815, 220.500 506.525 C 231.004 503.624, 231.744 503.158, 233.691 498.210 C 237.174 489.359, 246.107 471.684, 250.666 464.624 C 269.835 434.935, 297.565 416.404, 331 410.941 C 340.424 409.401, 361.154 409.685, 371 411.490 C 375.675 412.347, 384.111 414.661, 389.748 416.632 C 395.384 418.603, 400.562 419.998, 401.255 419.732 C 401.948 419.466, 403.383 416.830, 404.444 413.874 C 409.658 399.345, 424.050 372.582, 436.103 355 C 444.758 342.375, 457.616 326.618, 468.947 314.750 C 474.476 308.959, 479 303.747, 479 303.167 C 479 301.242, 467.838 288.921, 460.114 282.320 C 435.459 261.251, 411.147 251.379, 390.500 254.053 M 659.577 294.079 C 627.002 298.549, 600.709 312.256, 562.002 344.945 C 520.967 379.601, 493.539 416.738, 481.088 454.500 C 475.667 470.941, 474 479.991, 474 492.989 C 474 509.620, 470.477 518.645, 460.268 528.166 C 448.415 539.221, 431.100 542.919, 416.960 537.416 C 409.087 534.352, 396.804 525.590, 385.149 514.724 C 370.564 501.127, 362.858 496.835, 351.886 496.200 C 333.035 495.108, 324.492 503.304, 311.961 534.500 C 302.432 558.222, 292.104 570.561, 274.803 578.892 C 269.013 581.680, 259.964 584.999, 254.146 586.470 C 241.404 589.691, 235.629 592.324, 234.140 595.591 C 233.513 596.968, 232.995 602.235, 232.988 607.297 C 232.980 613.723, 232.226 619.517, 230.488 626.498 C 225.054 648.332, 228.724 670.669, 239.201 679.530 C 249.424 688.175, 270.569 692.335, 340.500 699.459 C 394.799 704.990, 453.746 709.279, 499 710.989 C 528.991 712.123, 542.808 713.004, 577 715.964 C 601.035 718.044, 618.685 719.308, 647.500 721.013 C 665.901 722.102, 674.531 722.851, 700 725.569 C 734.979 729.302, 747.367 730.117, 777.500 730.669 C 809.467 731.255, 859.906 729.923, 882 727.910 C 896.269 726.610, 916.867 722.897, 932 718.897 C 946.523 715.058, 972.760 706.357, 975.833 704.361 C 978.929 702.349, 985.482 688.459, 987.990 678.590 C 991.993 662.839, 989.884 645.083, 982.017 628.296 C 974.543 612.346, 967.324 603.111, 939.572 574 C 916.118 549.398, 906.937 533.463, 899.934 505.209 C 893.932 480.991, 891.478 476.794, 882.538 475.453 C 880.090 475.086, 870.755 475.276, 861.793 475.875 C 835.928 477.603, 824.445 475.840, 808.654 467.714 C 798.558 462.520, 791.397 455.909, 784.282 445.216 C 776.712 433.838, 772.265 422.414, 765.612 397.248 C 762.572 385.748, 758.659 372.398, 756.916 367.582 C 745.343 335.597, 724.037 308.881, 702.675 299.567 C 690.958 294.459, 673.245 292.203, 659.577 294.079" stroke="none" fill-rule="evenodd"/></svg>