<svg xmlns="http://www.w3.org/2000/svg" fill="currentColor" viewBox="0 0 1080 1080" version="1.1"><path d="" stroke="none" fill-rule="evenodd"/><path d="M 583.500 83.567 C 553.450 87.558, 519.777 98.910, 492.387 114.283 C 441.802 142.674, 381.904 196.408, 348.260 243.577 C 333.944 263.649, 316.579 294.916, 309.855 312.732 C 308.099 317.385, 306.052 321.427, 305.307 321.713 C 304.561 321.999, 299.575 320.592, 294.226 318.587 C 265.968 307.995, 233.756 307.300, 206 316.684 C 179.925 325.499, 158.935 340.461, 142.517 361.936 C 135.113 371.621, 123.734 391.722, 119.030 403.425 C 116.731 409.146, 114.096 414.487, 113.175 415.296 C 112.254 416.105, 108.800 417.531, 105.500 418.464 C 86.715 423.778, 72.419 430.275, 61.500 438.462 C 42.588 452.641, 29.518 470.766, 22.172 493 C 19.227 501.910, 18.221 507.814, 17.013 523.258 C 16.443 530.541, 15.212 541.450, 14.276 547.500 C 11.850 563.192, 11.901 594.050, 14.376 607.500 C 16.688 620.066, 21.733 635.594, 27.370 647.494 C 42.886 680.249, 69.142 702.880, 106 715.267 C 136.194 725.415, 211.374 734.804, 335.500 743.928 C 358.915 745.649, 383.109 746.928, 412.500 747.999 C 442.744 749.100, 450.353 749.602, 503.500 753.999 C 522.750 755.592, 547.275 757.389, 558 757.992 C 585.857 759.561, 611.357 761.648, 637.109 764.467 C 685.565 769.771, 699.437 770.498, 749.500 770.360 C 818.781 770.169, 858.433 767.942, 890.137 762.461 C 922.497 756.866, 966.450 744.158, 996.985 731.568 C 1017.510 723.106, 1023.148 718.544, 1035.040 700.775 C 1047.979 681.441, 1061.262 648.744, 1065.621 625.500 C 1068.245 611.503, 1068.246 579.716, 1065.622 565.500 C 1059.657 533.183, 1046.209 503.209, 1025.243 475.500 C 1015.977 463.253, 1008.028 454.140, 992.969 438.500 C 968.450 413.035, 967.149 411.012, 962.111 390.500 C 956.272 366.729, 948.447 346.606, 940.766 335.613 C 927.731 316.957, 912.862 304.743, 892.774 296.189 C 876.311 289.179, 866.452 287.593, 839.033 287.543 L 815.567 287.500 813.362 279.500 C 812.150 275.100, 809.534 265.425, 807.550 258 C 792.899 203.187, 764.127 154.259, 729.348 125.017 C 704.482 104.110, 679.870 92.034, 648.533 85.367 C 638.309 83.191, 633.343 82.754, 615.500 82.456 C 600.922 82.213, 591.136 82.552, 583.500 83.567 M 597.931 180.010 C 581.672 181.865, 559.969 188.754, 543.661 197.236 C 508.607 215.471, 455.595 261.990, 429.921 297.046 C 413.952 318.851, 403.370 338.897, 395.633 362 C 389.673 379.800, 388.003 388.577, 387.985 402.208 C 387.960 421.176, 383.919 432.904, 373.854 443.215 C 363.243 454.087, 346.888 459.511, 332.193 457.033 C 318.914 454.793, 306.697 447.417, 290.116 431.629 C 271.726 414.118, 260.578 408, 247.062 408 C 228.059 408, 218.153 418.111, 204.932 451 C 201.505 459.525, 196.643 469.629, 194.126 473.453 C 188.614 481.832, 179.203 492.076, 173.267 496.160 C 166.537 500.791, 150.580 507.439, 139 510.437 C 126.711 513.619, 118.564 517.064, 117.202 519.655 C 116.668 520.670, 116.003 527.125, 115.724 534 C 115.355 543.104, 114.473 549.353, 112.477 557 C 106.755 578.931, 109.935 601.038, 120.503 612.792 C 129.444 622.736, 143.724 626.643, 194 632.899 C 206.925 634.507, 220.200 636.087, 223.500 636.409 C 281.005 642.035, 307.235 644.282, 346.500 646.944 C 362.450 648.026, 386.525 649.387, 400 649.970 C 445.310 651.928, 466.384 653.144, 488 655.048 C 508.117 656.820, 537.403 658.937, 591.033 662.497 C 603.426 663.319, 626.376 665.328, 642.033 666.961 C 699.364 672.941, 706.554 673.275, 764.500 672.652 C 834.062 671.905, 852.179 670.651, 883.630 664.411 C 907.566 659.661, 943.271 649.048, 954.028 643.485 C 957.612 641.632, 963.663 629.528, 967.578 616.378 C 971.108 604.524, 971.335 587.557, 968.123 575.592 C 961.773 551.930, 951.766 536.685, 921.862 505.114 C 899.756 481.775, 892.431 473.055, 886.068 462.500 C 877.761 448.718, 873.918 438.690, 867.537 414.141 C 865.109 404.802, 862.189 395.332, 861.049 393.095 C 857.117 385.389, 857.703 385.500, 821.040 385.500 L 788.500 385.500 780.500 382.693 C 767.485 378.127, 754.715 370.519, 747.978 363.317 C 732.916 347.216, 727.053 334.601, 716.968 296.596 C 709.827 269.685, 704.767 255.298, 697.533 241.335 C 680.398 208.262, 659.120 188.450, 633.888 182.075 C 624.748 179.766, 608.333 178.824, 597.931 180.010 M 202.355 736.981 C 196.051 738.317, 188.254 742.662, 183.644 747.406 C 181.365 749.752, 174.588 759.958, 168.585 770.086 C 162.581 780.214, 154.198 794.350, 149.955 801.500 C 94.313 895.264, 74.106 929.728, 71.098 936 C 67.780 942.917, 67.502 944.200, 67.523 952.500 C 67.543 960.066, 67.959 962.376, 70.133 967 C 73.959 975.135, 80.025 981.395, 87.782 985.213 C 93.846 988.199, 95.285 988.499, 103.479 988.484 C 111.115 988.471, 113.371 988.063, 118.175 985.824 C 127.820 981.329, 131.992 976.488, 144.658 955.098 C 151.041 944.319, 161.315 926.950, 167.491 916.500 C 201.108 859.616, 225.203 818.903, 232.730 806.269 C 243.866 787.576, 245.946 782.418, 245.976 773.428 C 246.015 761.742, 241.633 752.121, 232.843 744.598 C 225.364 738.196, 212.173 734.901, 202.355 736.981 M 441 771.890 C 432.878 774.517, 425.562 779.870, 420.968 786.546 C 419.335 788.920, 407.377 811.705, 394.394 837.181 C 381.411 862.656, 368.843 886.875, 366.465 891 C 361.208 900.118, 349.612 926.088, 347.400 933.695 C 341.007 955.687, 356.443 978.529, 379.131 980.648 C 391.446 981.798, 405.059 975.589, 411.844 965.727 C 413.499 963.321, 417.599 955.086, 420.954 947.426 C 424.309 939.767, 429.235 929.675, 431.900 925 C 434.566 920.325, 439.453 911.100, 442.761 904.500 C 446.070 897.900, 456.623 877.198, 466.212 858.495 C 475.802 839.792, 484.509 822.242, 485.561 819.495 C 488.210 812.578, 487.993 801.400, 485.062 793.753 C 482.188 786.258, 474.843 778.261, 467.341 774.460 C 462.313 771.912, 460.248 771.471, 452.500 771.291 C 447.550 771.175, 442.375 771.445, 441 771.890 M 731.500 782.399 C 718.209 786.602, 712.868 792.107, 701.826 812.985 C 698.476 819.318, 694.047 827.650, 691.983 831.500 C 689.919 835.350, 682.941 848.625, 676.477 861 C 659.468 893.560, 645.405 920.322, 640.481 929.500 C 633.020 943.408, 631.360 953.114, 634.584 963.972 C 637.508 973.816, 644.242 981.691, 654 986.674 C 658.950 989.202, 660.500 989.481, 669.500 989.471 C 678.556 989.461, 680.051 989.183, 685.336 986.526 C 695.441 981.445, 699.499 975.815, 716.710 943 C 725.219 926.775, 740.122 898.425, 749.827 880 C 774.133 833.855, 775.881 830.259, 777.052 824 C 779.634 810.202, 772.942 794.616, 761.247 787.191 C 752.252 781.479, 740.429 779.575, 731.500 782.399 M 977.284 792.890 C 965.522 797.257, 958.303 805.256, 953.015 819.779 C 951.356 824.333, 947.492 837.158, 944.427 848.279 C 941.362 859.401, 937.704 872.325, 936.299 877 C 931.822 891.892, 918.056 928.990, 912.570 940.948 C 904.108 959.391, 903.500 961.440, 903.500 971.500 C 903.500 979.156, 903.897 981.348, 906.160 986.175 C 909.885 994.121, 916.030 1000.397, 923.856 1004.250 C 929.829 1007.190, 931.320 1007.500, 939.500 1007.500 C 947.705 1007.500, 949.162 1007.195, 955.231 1004.207 C 965.358 999.222, 969.399 993.923, 978.574 973.601 C 982.821 964.196, 988.879 949.300, 992.036 940.500 C 995.194 931.700, 999.120 920.900, 1000.761 916.500 C 1002.401 912.100, 1006.767 897.700, 1010.461 884.500 C 1014.155 871.300, 1018.930 854.875, 1021.071 848 C 1026.070 831.954, 1026.654 827.102, 1024.570 818.966 C 1020.318 802.371, 1007.548 791.996, 990.500 791.286 C 984.420 791.033, 981.248 791.419, 977.284 792.890" stroke="none" fill-rule="evenodd"/></svg>