<svg xmlns="http://www.w3.org/2000/svg" fill="currentColor" viewBox="0 0 1080 1080" version="1.1"><path d="" stroke="none" fill-rule="evenodd"/><path d="M 590 73.064 C 554.470 77.438, 519.392 89.337, 488.344 107.546 C 437.524 137.352, 378.064 191.394, 346.370 236.586 C 329.231 261.023, 313.541 289.506, 306.056 309.771 C 304.783 313.220, 303.406 316.249, 302.997 316.502 C 302.589 316.754, 297.397 315.131, 291.461 312.894 C 274.650 306.559, 263.576 304.635, 243.500 304.562 C 229.198 304.510, 224.852 304.869, 216.114 306.825 C 203.271 309.701, 192.445 313.643, 180.620 319.750 C 152.327 334.363, 127.661 363.469, 112.969 399.577 C 108.429 410.733, 107.038 412.619, 102.646 413.564 C 88.290 416.655, 63.602 427.504, 54.432 434.752 C 35.010 450.105, 23.670 465.427, 15.585 487.241 C 12.786 494.791, 11.643 499.964, 10.502 510.241 C 9.693 517.533, 8.075 531.825, 6.907 542 C 4.005 567.290, 3.521 579.705, 4.916 593.108 C 10.508 646.853, 36.720 686.953, 80.500 708.742 C 90.841 713.889, 107.548 719.423, 121.826 722.432 C 128.055 723.745, 133.432 725.099, 133.774 725.441 C 134.116 725.783, 133.819 729.311, 133.114 733.281 C 131.161 744.282, 130.581 764.293, 131.920 774.500 C 134.394 793.363, 143.300 812.440, 156.136 826.370 C 186.178 858.973, 241.730 867.547, 284.722 846.217 C 318.342 829.536, 337.428 796.420, 335.711 757.750 L 335.189 746 338.844 746.016 C 340.855 746.025, 347.675 746.448, 354 746.956 C 360.325 747.464, 377.875 748.367, 393 748.963 C 435.756 750.647, 458.672 751.948, 482 754.018 C 507.357 756.268, 551.633 759.618, 568.250 760.543 C 574.712 760.903, 580 761.446, 580 761.751 C 580 762.055, 575.959 766.481, 571.021 771.585 C 557.133 785.941, 546.496 803.581, 541.398 820.712 C 537.926 832.378, 537.040 850.673, 539.356 862.898 C 542.441 879.192, 553.513 896.901, 567.020 907.146 C 589.033 923.844, 623.578 927.912, 651.566 917.102 C 678.788 906.588, 698.157 885.457, 706.198 857.500 C 709.255 846.871, 709.488 823.901, 706.634 814.500 C 702.566 801.098, 695.034 787.806, 685.503 777.211 C 682.886 774.302, 681.013 771.653, 681.342 771.325 C 681.671 770.996, 692.109 771.311, 704.539 772.024 C 741.935 774.171, 831.807 772.221, 869.500 768.446 C 897.770 765.615, 932.187 758.236, 964.986 747.974 C 981.972 742.659, 1008.330 732.796, 1018.787 727.842 C 1032.531 721.329, 1045.103 705.491, 1058.376 677.967 C 1069.950 653.967, 1075.924 633.878, 1078.076 611.717 C 1082.271 568.530, 1070.298 524.323, 1043.486 484 C 1033.873 469.544, 1022.198 455.589, 1000.363 432.457 C 988.755 420.159, 979.353 409.290, 977.741 406.304 C 976.223 403.494, 972.758 392.671, 970.040 382.250 C 964.243 360.027, 961.776 353.144, 954.881 339.960 C 943.140 317.510, 924.020 299.806, 901.365 290.408 C 882.724 282.676, 876.566 281.664, 847.245 281.514 C 833.494 281.444, 822.599 280.981, 822.087 280.445 C 821.590 279.925, 818.900 270.641, 816.109 259.813 C 805.570 218.928, 793.686 191.364, 773.507 161 C 742.128 113.781, 703.113 86.399, 651.500 75.371 C 641.260 73.183, 636.420 72.758, 618.500 72.474 C 606.950 72.291, 594.125 72.557, 590 73.064 M 597.635 172.068 C 582.412 174.171, 563.333 180.306, 547.850 188.075 C 514.088 205.018, 463.257 248.022, 435.074 283.487 C 418.921 303.814, 405.325 327.505, 397.190 349.500 C 389.124 371.309, 387.008 381.245, 386.983 397.434 C 386.954 415.538, 383.205 427.559, 374.368 437.883 C 369.479 443.595, 359.824 449.692, 351.815 452.125 C 342.253 455.029, 328.200 454.482, 319.401 450.863 C 309.995 446.994, 299.677 439.602, 287.351 427.901 C 268.561 410.064, 257.012 403.709, 243.500 403.770 C 233.488 403.816, 225.888 406.899, 219.503 413.505 C 212.625 420.622, 208.711 427.564, 201.310 445.775 C 197.823 454.356, 193.782 463.429, 192.331 465.938 C 187.631 474.063, 176.992 486.942, 171.641 490.981 C 163.716 496.965, 146.907 504.502, 133.626 508.026 C 119.045 511.896, 113.570 514.179, 111.660 517.187 C 110.648 518.782, 110.053 523.382, 109.745 532 C 109.408 541.408, 108.609 547.097, 106.513 555 C 100.359 578.200, 104.083 602.016, 115.676 613.609 C 124.225 622.159, 140.346 626.415, 187 632.439 C 197.725 633.823, 213.475 635.627, 222 636.447 C 294.066 643.377, 307.801 644.535, 352.500 647.451 C 387.188 649.714, 391.320 649.930, 420.500 651.007 C 450.379 652.110, 463.253 652.950, 504.500 656.490 C 519.900 657.811, 540.150 659.366, 549.500 659.945 C 592.062 662.581, 615.189 664.169, 623.500 665.026 C 628.450 665.536, 643.300 667.070, 656.500 668.434 C 702.902 673.228, 708.582 673.503, 758 673.345 C 848.823 673.053, 881.506 669.585, 929.500 655.143 C 952.014 648.368, 961.263 644.793, 964.694 641.539 C 968.179 638.234, 974.641 623.965, 977.619 613 C 980.273 603.227, 980.041 585.005, 977.123 574 C 974.501 564.112, 967.082 547.987, 960.960 538.870 C 954.898 529.844, 944.366 517.422, 930.970 503.500 C 901.873 473.262, 895.999 465.706, 887.434 447.500 C 882.190 436.353, 878.912 426.539, 874.409 408.500 C 872.487 400.800, 869.828 392.246, 868.502 389.492 C 864.099 380.351, 859.035 379.173, 831.810 380.961 C 802.074 382.913, 787.572 380.426, 769 370.186 C 750.946 360.233, 737.228 341.621, 728.691 315.500 C 727.253 311.100, 723.994 299.446, 721.449 289.601 C 715.154 265.255, 710.105 250.902, 702.419 235.500 C 685.558 201.710, 663.401 180.750, 637.296 173.894 C 628.216 171.510, 608.306 170.593, 597.635 172.068 M 217.536 742.932 C 212.127 745.644, 207.326 748.457, 206.866 749.182 C 206.407 749.907, 206.034 753.875, 206.037 758 C 206.051 773.842, 213.819 781.560, 230.928 782.732 C 249.137 783.981, 261.787 774.973, 260.743 761.500 C 259.642 747.273, 248.696 738, 233.003 738 C 228.249 738, 225.834 738.770, 217.536 742.932 M 851 815.618 C 820.191 818.345, 797.225 829.749, 775.854 852.933 C 752.528 878.240, 739.874 909.588, 741.315 938.500 C 742.502 962.320, 752.169 982.703, 770.338 999.699 C 778.629 1007.455, 783.463 1010.769, 794.717 1016.412 C 817.110 1027.639, 844.179 1030.847, 867.726 1025.062 C 894.897 1018.388, 921.750 996.424, 935.655 969.500 C 945.529 950.381, 949.493 932.294, 948.694 910 C 948.098 893.380, 946.054 884.233, 940.079 871.450 C 922.348 833.512, 888.502 812.299, 851 815.618 M 372 822.481 C 351.051 826.046, 333.010 835.551, 318.158 850.848 C 301.114 868.403, 292.338 889.217, 291.320 914.500 C 290.458 935.919, 295.226 953.895, 306.251 970.790 C 320.796 993.077, 345.498 1009.574, 370.820 1013.910 C 387.881 1016.832, 400.849 1015.898, 418.500 1010.478 C 438.952 1004.198, 459.202 988.176, 470.508 969.331 C 480.183 953.204, 483.981 940.412, 484.710 921.500 C 485.153 910.032, 484.910 907.170, 482.653 897.214 C 474.346 860.581, 446.574 832.482, 409.236 822.933 C 400.375 820.666, 383.844 820.466, 372 822.481 M 620.947 828.057 C 616.956 832.329, 612.784 841.244, 613.175 844.663 C 613.479 847.314, 613.831 847.519, 618.536 847.795 C 624.587 848.149, 629.448 845.386, 632.406 839.909 C 634.737 835.594, 634.116 832.406, 630.109 828.117 C 626.459 824.209, 624.553 824.197, 620.947 828.057 M 850.766 895.999 C 847.613 897.658, 842.281 899.658, 838.918 900.442 C 831.740 902.116, 830.306 903.265, 824.527 911.965 C 816.580 923.926, 814.268 935.181, 818.446 941.558 C 820.969 945.408, 827.819 949.891, 833.864 951.649 C 849.043 956.061, 862.212 948.974, 870.374 932 C 873.234 926.054, 873.500 924.647, 873.500 915.500 C 873.500 905.223, 872.583 901.918, 868.123 896.117 C 865.153 892.254, 857.977 892.205, 850.766 895.999 M 381.683 897.454 C 371.842 900.050, 365.208 910.039, 366.300 920.617 C 367.789 935.049, 382.629 943.851, 396.524 938.544 C 407.388 934.395, 413.022 920.249, 408.114 909.444 C 405.728 904.190, 398.712 898.195, 394.087 897.457 C 392.114 897.142, 389.600 896.727, 388.500 896.534 C 387.400 896.341, 384.332 896.755, 381.683 897.454" stroke="none" fill-rule="evenodd"/></svg>