<svg xmlns="http://www.w3.org/2000/svg" fill="currentColor" viewBox="0 0 1080 1080" version="1.1"><path d="" stroke="none" fill-rule="evenodd"/><path d="M 530.870 9.509 C 519.588 13.120, 509.451 23.413, 506.005 34.757 C 504.043 41.218, 503.945 44.209, 503.727 104.504 C 503.556 151.847, 503.804 168.494, 504.722 171.500 C 508.107 182.576, 517.715 192.826, 528.656 197.033 C 536.214 199.939, 548.216 200.205, 555.748 197.632 C 566.984 193.796, 576.728 184.041, 580.703 172.649 C 582.369 167.876, 582.483 162.903, 582.273 104.583 C 582.021 34.922, 582.059 35.375, 575.507 25.378 C 571.492 19.253, 565.142 13.846, 558.420 10.831 C 552.101 7.995, 537.750 7.307, 530.870 9.509 M 102.892 187.307 C 92.835 191.529, 86.518 197.442, 82.359 206.528 C 73.323 226.265, 80.702 246.600, 101.084 258.129 C 104.613 260.125, 118.075 268.167, 131 276 C 143.925 283.833, 162.150 294.523, 171.500 299.755 C 198.513 314.870, 204.972 318.832, 213.703 325.639 C 218.215 329.157, 224.290 333.265, 227.203 334.768 C 232.032 337.259, 233.472 337.500, 243.500 337.496 C 256.947 337.490, 261.379 335.699, 270.588 326.549 C 278.298 318.888, 281.232 311.913, 281.337 301 C 281.470 287.142, 276.692 278.299, 262.873 266.836 C 251.592 257.477, 242.091 251.341, 217.500 237.529 C 193.250 223.909, 180.821 216.625, 158.455 202.925 C 149.630 197.519, 138.830 191.387, 134.455 189.298 C 127.332 185.897, 125.558 185.471, 117.500 185.226 C 109.907 184.996, 107.623 185.321, 102.892 187.307 M 956.500 186.909 C 950.446 189.182, 942.284 193.752, 922.500 205.949 C 914.250 211.035, 896.025 221.728, 882 229.712 C 836.496 255.617, 828.195 261.039, 816.367 272.587 C 806.586 282.136, 802.491 295.681, 805.483 308.582 C 808.197 320.283, 815.149 329.129, 826 334.684 C 831.047 337.268, 832.406 337.500, 842.500 337.500 C 855.409 337.500, 858.036 336.451, 872.208 325.638 C 882.067 318.115, 888.027 314.404, 908.500 303.041 C 916.750 298.462, 934.867 287.917, 948.760 279.608 C 962.653 271.298, 977.943 262.189, 982.739 259.364 C 993.532 253.007, 999.939 246.861, 1003.648 239.308 C 1006.235 234.039, 1006.500 232.523, 1006.500 222.979 C 1006.500 213.106, 1006.298 212.047, 1003.213 205.782 C 999.387 198.010, 993.111 191.937, 985 188.158 C 977.592 184.706, 963.960 184.109, 956.500 186.909 M 529 203.621 C 467.564 208.043, 413.941 225.814, 366.605 257.440 C 331.313 281.019, 304.091 307.538, 280.262 341.551 C 220.024 427.537, 205.715 539.769, 242.468 638 C 258.708 681.406, 283.411 720.143, 315.500 752.524 C 331.687 768.858, 345.126 779.844, 366 793.805 C 399.556 816.247, 431.333 830.146, 470.523 839.522 C 510.446 849.074, 558.478 850.541, 599.662 843.467 C 678.299 829.960, 750.858 786.206, 799.697 722.843 C 834.298 677.953, 856.228 625.205, 864.280 567.500 C 866.804 549.418, 867.273 508.200, 865.151 491 C 857.830 431.663, 836.789 378.588, 802.373 332.645 C 759.737 275.728, 700.493 235.346, 630 215.153 C 610.731 209.634, 601.791 207.763, 583.627 205.452 C 571.638 203.927, 539.648 202.854, 529 203.621 M 519.500 273.598 C 488.234 278.138, 472.984 281.820, 453.364 289.567 C 419.803 302.819, 394.126 319.304, 368.596 343.990 C 346.103 365.739, 331.506 385.773, 317.586 414 C 300.830 447.978, 292.686 480.094, 291.341 517.500 C 288.813 587.818, 316.415 657.007, 366.621 706.199 C 407.875 746.620, 460.349 771.541, 517.962 778.074 C 532.922 779.770, 571.137 778.680, 585.500 776.148 C 629.434 768.400, 670.037 750.223, 703.500 723.321 C 752.745 683.731, 785.308 626.983, 795.206 563.500 C 798.164 544.530, 798.372 510.620, 795.648 491.500 C 791.723 463.954, 784.092 439.105, 772.001 414.500 C 747.718 365.085, 708.874 325.385, 660.991 301.043 C 632.251 286.433, 609.599 279.450, 576.500 274.996 C 568.261 273.887, 524.843 272.823, 519.500 273.598 M 43.024 499.670 C 28.401 503.421, 17.724 515.645, 14.858 531.917 C 11.357 551.789, 25.131 572.424, 44.852 576.855 C 47.027 577.344, 79.356 577.546, 117.143 577.308 C 192.726 576.830, 190.926 576.981, 200.759 570.311 C 206.864 566.170, 212.353 559.135, 215.265 551.719 C 218.182 544.287, 218.098 531.557, 215.079 523.748 C 210.882 512.893, 201.711 504.015, 191.149 500.583 C 184.343 498.371, 51.284 497.551, 43.024 499.670 M 902.829 499.074 C 879.208 501.105, 862.847 525.675, 869.822 548.641 C 872.610 557.819, 877.115 564.353, 884.306 569.646 C 894.252 576.968, 892.283 576.790, 968.857 577.292 C 1006.709 577.540, 1038.969 577.345, 1041.148 576.855 C 1060.739 572.454, 1074.311 552.080, 1071.068 531.940 C 1068.681 517.120, 1059.483 505.643, 1045.636 500.207 C 1041.972 498.769, 1033.970 498.579, 975.500 498.542 C 939.200 498.519, 906.498 498.758, 902.829 499.074 M 236.270 738.004 C 229.873 739.342, 224.140 742.206, 217.500 747.379 C 206.557 755.905, 200.703 759.614, 177.225 772.897 C 155.797 785.020, 131.224 799.509, 103.500 816.369 C 97.450 820.048, 90.747 824.958, 88.605 827.279 C 78.323 838.422, 75.815 855.180, 82.308 869.362 C 88.911 883.785, 102.647 891.739, 119.289 890.777 C 126.199 890.377, 128.174 889.767, 136.789 885.370 C 142.130 882.645, 156.853 874.093, 169.506 866.367 C 182.159 858.642, 202.409 846.811, 214.506 840.077 C 243.383 824.001, 257.492 814.509, 268.112 804.012 C 275.073 797.133, 277.162 794.349, 279.006 789.500 C 282.170 781.178, 282.162 769.778, 278.985 761.500 C 275.830 753.278, 265.818 743.182, 257.886 740.224 C 251.173 737.720, 242.086 736.787, 236.270 738.004 M 835.045 738.039 C 807.288 743.815, 795.115 777.194, 812.749 799.176 C 820.789 809.200, 838.307 821.584, 867 837.529 C 886.774 848.519, 918.838 867.374, 932.898 876.281 C 938.068 879.555, 946.168 884.094, 950.898 886.367 C 959.237 890.374, 959.806 890.499, 969.500 890.469 C 978.458 890.441, 980.123 890.136, 985.478 887.538 C 993.085 883.849, 1000.373 876.574, 1003.812 869.236 C 1006.195 864.152, 1006.500 862.307, 1006.500 853 C 1006.500 843.710, 1006.192 841.843, 1003.830 836.804 C 1000.207 829.074, 994.402 823.571, 981.972 816.082 C 949.123 796.290, 923.024 780.917, 904 770.153 C 892.175 763.462, 877.454 754.207, 871.287 749.587 C 864.929 744.823, 858.001 740.505, 855.287 739.614 C 848.981 737.544, 840.569 736.889, 835.045 738.039 M 534.355 877.039 C 524.017 879.086, 513.300 887.173, 508.242 896.748 C 502.758 907.125, 502.654 908.807, 503.385 974.730 C 504.008 1030.885, 504.187 1035.385, 506.031 1041.230 C 512.397 1061.406, 534.240 1072.538, 554.864 1066.119 C 565.667 1062.757, 573.528 1055.566, 578.786 1044.235 C 581.403 1038.596, 581.458 1038.033, 582.128 1010.500 C 583.226 965.329, 583.119 915.011, 581.911 908.474 C 577.863 886.579, 556.731 872.611, 534.355 877.039" stroke="none" fill-rule="evenodd"/></svg>