<svg xmlns="http://www.w3.org/2000/svg" fill="currentColor" viewBox="0 0 1080 1080" version="1.1"><path d="" stroke="none" fill-rule="evenodd"/><path d="M 507.500 101.613 C 498.035 104.014, 490.658 109.020, 484.488 117.228 C 478.057 125.783, 474.096 133.992, 468.432 150.500 C 463.990 163.449, 463.624 165.250, 463.565 174.500 C 463.508 183.294, 463.818 185.178, 466.135 190.120 C 469.703 197.728, 474.732 203.034, 482.232 207.101 C 488.172 210.322, 489.023 210.500, 498.500 210.499 C 507.506 210.499, 509.026 210.222, 513.786 207.714 C 525.237 201.682, 529.987 194.765, 536.014 175.343 C 537.747 169.756, 540.883 162.246, 542.982 158.654 C 548.719 148.836, 550.332 143.078, 549.775 134.401 C 548.599 116.072, 534.936 102.412, 516.847 101.483 C 512.806 101.275, 508.600 101.334, 507.500 101.613 M 248.929 106.304 C 234.798 110.311, 224.770 121.980, 222.519 137.039 C 221.588 143.265, 224.959 158.931, 229.321 168.654 C 231.257 172.969, 234.501 180.775, 236.531 186 C 243.058 202.804, 248.931 209.578, 260.847 214.051 C 265.325 215.732, 268.163 216.098, 274.500 215.816 C 288.773 215.179, 299.194 208.220, 305.247 195.285 C 307.868 189.685, 308.296 187.622, 308.287 180.634 C 308.278 173.367, 307.770 171.167, 303.531 160 C 300.920 153.125, 297.984 145.925, 297.005 144 C 296.026 142.075, 294.258 137.361, 293.076 133.525 C 289.145 120.770, 282.868 113.118, 272.410 108.330 C 265.913 105.356, 255.457 104.453, 248.929 106.304 M 397.500 206.667 C 353.442 209.371, 303.814 224.621, 267 246.770 C 205.943 283.504, 161.117 335.346, 136.669 397.500 C 127.235 421.484, 121.215 444.995, 117.338 473 C 114.950 490.243, 114.939 528.704, 117.316 545.767 C 123.904 593.052, 138.460 633.481, 162.904 672.386 C 167.357 679.473, 171 685.467, 171 685.706 C 171 685.944, 169.710 688.021, 168.133 690.320 C 162.489 698.549, 156.417 713.036, 153.598 725 C 152.458 729.836, 150.501 771.692, 150.630 788.500 C 150.816 812.958, 153.999 826.816, 164.411 848.500 C 181.806 884.727, 212.153 905.629, 258 912.961 C 278.036 916.166, 311.773 918.833, 360 921.026 C 407.021 923.163, 430.969 923.656, 498.500 923.874 C 535.900 923.994, 574.825 924.450, 585 924.886 C 595.175 925.322, 616.775 925.764, 633 925.868 C 649.225 925.972, 670.825 926.479, 681 926.995 C 737.279 929.847, 750.313 930.219, 773.500 929.635 C 823.723 928.370, 892.085 921.961, 919.175 915.979 C 959.979 906.967, 1018.221 885.052, 1032 873.525 C 1046.209 861.637, 1061.292 830.120, 1068.620 797 C 1071.089 785.844, 1071.082 754.700, 1068.607 742 C 1064.334 720.067, 1054.780 696.877, 1042.238 678 C 1031.831 662.335, 1021.340 650.440, 998.675 628.608 C 975.779 606.553, 974.293 604.467, 969.041 587 C 961.248 561.086, 953.661 546.349, 941.213 532.951 C 928.946 519.746, 911.799 509.766, 894 505.469 C 884.665 503.215, 864.532 502.511, 850.577 503.950 C 840.808 504.957, 838.520 504.937, 837.475 503.835 C 836.778 503.101, 833.870 495.075, 831.012 486 C 816.817 440.931, 797.208 407.072, 769.856 380.403 C 748.515 359.595, 727.182 347.091, 700.735 339.887 L 688.576 336.575 694.756 335.324 C 698.155 334.636, 702.815 333.115, 705.110 331.944 C 711.108 328.884, 718.208 321.878, 721.499 315.774 C 723.063 312.873, 728.781 303.650, 734.206 295.278 C 745.609 277.679, 747.156 274.052, 747.331 264.500 C 747.641 247.666, 736.776 233.690, 720.067 229.431 C 709.235 226.669, 697.503 229.547, 688.684 237.128 C 682.891 242.109, 664.857 268.942, 658.723 281.709 C 654.672 290.142, 654.500 290.887, 654.500 300 C 654.500 308.364, 654.832 310.177, 657.279 315.160 C 660.699 322.123, 665.924 327.627, 673.065 331.789 L 678.500 334.956 672.632 334.978 C 667.126 334.999, 666.541 334.765, 663.132 331.191 C 661.135 329.097, 656.575 323.602, 653 318.981 C 644.445 307.923, 621.054 284.477, 608.500 274.375 C 578.052 249.874, 546.582 232.959, 508.500 220.625 C 475.733 210.013, 432.198 204.538, 397.500 206.667 M 70.445 236.099 C 49.891 238.680, 35.635 260.474, 41.440 280.441 C 44.996 292.675, 50.355 297.922, 76.295 314.570 C 86.308 320.996, 98.550 328.877, 103.500 332.083 C 116.289 340.366, 119.016 341.366, 129 341.439 C 136.291 341.491, 138.353 341.102, 143.500 338.700 C 151.315 335.054, 158.144 328.256, 161.671 320.610 C 164.063 315.427, 164.491 313.208, 164.495 305.979 C 164.500 298.365, 164.151 296.749, 161.219 290.794 C 157.274 282.779, 152.138 277.949, 138.046 269 C 132.417 265.425, 120.397 257.655, 111.334 251.734 C 102.272 245.813, 92.988 240.014, 90.703 238.848 C 85.790 236.342, 77.485 235.215, 70.445 236.099 M 402 280.989 C 370.545 283.520, 343.660 291.040, 313.816 305.655 C 291.038 316.810, 273.112 329.744, 254.492 348.459 C 185.996 417.308, 169.092 522.817, 212.398 611.205 C 218.759 624.187, 230.598 643, 232.408 643 C 233.083 643, 234.443 640.413, 235.431 637.250 C 238.409 627.717, 246.619 611.263, 253.718 600.599 C 273.702 570.581, 305.581 552.222, 342.500 549.471 C 353.916 548.620, 371.913 551.007, 384.431 555.033 C 391.494 557.304, 393.727 557.676, 394.588 556.722 C 395.195 556.050, 397.384 550.665, 399.452 544.755 C 403.961 531.876, 415.341 508.335, 423.940 494.099 C 439.048 469.088, 452.928 451.973, 480.447 424.420 C 513.773 391.054, 539.434 371.310, 568.219 356.890 L 582.432 349.770 573.892 341.514 C 564.186 332.130, 550.323 321.563, 537.355 313.663 C 496.388 288.710, 448.806 277.223, 402 280.989 M 29.286 420.381 C 19.365 423.646, 11.506 430.341, 7.825 438.662 C 6.179 442.384, 6.018 444.484, 6.558 455.213 C 7.315 470.239, 8.145 473.117, 13.346 478.759 C 18.924 484.811, 27.139 488.774, 36.738 490.043 C 41.007 490.608, 50.125 492.248, 57 493.688 C 68.370 496.070, 70.124 496.200, 76.409 495.129 C 92.311 492.419, 103.475 481.157, 106.039 465.240 C 108.204 451.797, 102.133 438.093, 90.630 430.455 C 78.880 422.653, 41.188 416.463, 29.286 420.381 M 649 420.185 C 639.643 421.150, 633.937 422.456, 622.500 426.248 C 597.092 434.674, 572.637 452.141, 538.966 485.913 C 504.075 520.909, 484.311 552.871, 473.896 591.140 C 471.126 601.316, 470.728 604.585, 470.078 622.500 C 469.298 643.999, 468.608 647.181, 462.924 655.500 C 452.546 670.689, 433.449 677.557, 415.932 672.401 C 408.282 670.150, 396.470 662.882, 387.311 654.791 C 377.623 646.233, 368.146 639.821, 360.980 636.977 C 353.152 633.870, 341.275 634.477, 334.720 638.318 C 325.817 643.536, 319.837 653.446, 312.331 675.421 C 302.039 705.554, 288.466 718.804, 257.075 729.364 C 249.673 731.853, 242.754 734.822, 241.409 736.086 C 239.174 738.185, 238.999 739.079, 238.990 748.424 C 238.984 753.966, 238.084 763.617, 236.990 769.871 C 234.641 783.291, 234.532 789.130, 236.460 798.227 C 241.206 820.621, 251.099 827.150, 286 830.919 C 329.122 835.576, 446.158 839.792, 502.405 838.715 C 518.705 838.403, 551.411 838.768, 577.405 839.552 C 602.757 840.316, 633.337 840.955, 645.360 840.971 C 657.383 840.987, 685.958 841.943, 708.860 843.095 C 753.698 845.351, 775.457 845.222, 814 842.471 C 879.633 837.787, 900.970 834.470, 934 823.815 C 947.033 819.610, 969.327 811.030, 973.027 808.795 C 975.776 807.134, 979.037 800.713, 982.572 790 C 985.044 782.508, 985.376 780.018, 985.371 769 C 985.366 757.966, 985.042 755.563, 982.610 748.514 C 974.804 725.884, 967.050 715.980, 927 677.486 C 905.792 657.102, 898.045 644.452, 888.492 614.606 C 882.066 594.530, 880.156 591.100, 874.262 589.046 C 870.567 587.759, 868.225 587.790, 853.795 589.315 C 825.088 592.349, 815.437 591.570, 799.488 584.931 C 789.358 580.713, 782.633 575.736, 775.244 566.986 C 766.402 556.516, 760.204 543.565, 752.354 519.157 C 741.953 486.821, 734.242 470.315, 722.159 454.523 C 708.401 436.541, 695.786 427.130, 679.348 422.583 C 669.302 419.805, 659.897 419.062, 649 420.185" stroke="none" fill-rule="evenodd"/></svg>